<?xml version="1.0" encoding="utf-8"?>
<!-- Generator: Adobe Illustrator 23.0.4, SVG Export Plug-In . SVG Version: 6.00 Build 0)  -->
<svg version="1.1" id="Layer_1" xmlns="http://www.w3.org/2000/svg" xmlns:xlink="http://www.w3.org/1999/xlink" x="0px" y="0px"
	 viewBox="0 0 1980 1080" style="enable-background:new 0 0 1980 1080;" xml:space="preserve">
<style type="text/css">
	.st0{fill:#FFFFFF;}
</style>
<g>
	
		<rect x="1076.9" y="539.2" transform="matrix(0.3921 -0.9199 0.9199 0.3921 185.9236 1361.439)" class="st0" width="92.5" height="1.6"/>
</g>
<g>
	<path class="st0" d="M859.9,546.6h8.3v5.1c-1.7,1.1-3.9,1.7-6.7,1.7c-6.7,0-11.4-4.9-11.4-11.7v-0.1c0-6.4,4.7-11.6,10.8-11.6
		c4.2,0,7.2,1.4,10.2,4l6.9-8.2c-4.5-3.9-9.7-6.1-17.1-6.1c-13.1,0-22.7,9.6-22.7,21.9v0.1c0,12.8,9.8,21.8,22.9,21.8
		c7.6,0,13.8-2.8,18.3-6.5v-19h-19.4V546.6z"/>
	<path class="st0" d="M907,519.7c-13,0-22.7,9.8-22.7,21.9v0.1c0,12.1,9.6,21.8,22.6,21.8c13,0,22.7-9.8,22.7-21.9v-0.1
		C929.7,529.4,920,519.7,907,519.7z M917.8,541.7c0,6.1-4.3,11.3-10.7,11.3c-6.4,0-10.8-5.3-10.8-11.4v-0.1
		c0-6.1,4.3-11.3,10.7-11.3c6.4,0,10.8,5.3,10.8,11.4V541.7z"/>
	<path class="st0" d="M973.1,535v-0.1c0-4.2-1.3-7.4-3.7-9.8c-2.8-2.9-7.3-4.6-13.7-4.6h-19.9v42.1h11.7v-12.8h5h0.1l8.5,12.8h13.5
		l-10-14.7C969.7,545.7,973.1,541.4,973.1,535z M961.4,535.7c0,3.1-2.3,5-6.3,5h-7.7v-10.1h7.6c3.9,0,6.3,1.7,6.3,5V535.7z"/>
	<path class="st0" d="M995.3,520.5H979v42.1h16c15.2,0,24-9,24-21.2v-0.1C1019,529.2,1010.3,520.5,995.3,520.5z M1007.1,541.6
		c0,6.8-4.6,10.7-11.6,10.7h-4.8v-21.4h4.8c7,0,11.6,3.9,11.6,10.7V541.6z"/>
	<rect x="1025.3" y="520.5" class="st0" width="11.7" height="42.1"/>
	<path class="st0" d="M1059.3,520.2l-17.9,42.4h12.3l3-7.5h16.2l3.1,7.5h12.5l-17.9-42.4H1059.3z M1060.1,546l4.8-12l4.7,12H1060.1z
		"/>
	<polygon class="st0" points="1120.8,520.5 1120.8,542.8 1103.5,520.5 1092.6,520.5 1092.6,562.6 1104.1,562.6 1104.1,539.5 
		1116.8,555.8 1131.9,520.5 	"/>
	<path class="st0" d="M1116.2,548.5"/>
</g>
</svg>
